<svg width="66" height="20" viewBox="0 0 66 20" fill="none" xmlns="http://www.w3.org/2000/svg">
    <g clip-path="url(#clip0_1_1307)">
        <path d="M45.8546 13.6979V7.91758C45.8546 6.74424 46.2452 5.89664 47.0544 5.89664H52.1091C52.127 5.895 52.1438 5.88387 52.1563 5.86543C52.1688 5.84699 52.176 5.82256 52.1765 5.79692V4.60364H45.9918C44.6432 4.85626 43.9946 6.18582 43.9946 7.90096V13.6779C43.9946 14.8546 43.6039 15.7022 42.7948 15.7022H37.4471C37.4292 15.703 37.4121 15.7133 37.3992 15.7311C37.3863 15.7489 37.3785 15.773 37.3774 15.7986V16.9553C37.3824 16.993 37.3963 17.0271 37.4169 17.0517H43.483C45.0734 16.9952 45.8546 15.5493 45.8546 13.6979ZM25.0591 17.0517H26.8378C26.8504 17.0429 26.861 17.0292 26.8684 17.0121C26.8758 16.9951 26.8797 16.9754 26.8796 16.9553V13.2757C26.8796 12.0991 27.3493 11.2914 28.0236 11.2914H35.3429C36.9868 11.2914 37.7959 9.84545 37.7959 7.93752C37.7959 6.22238 37.1356 4.89282 35.801 4.64352H25.0312C25.0243 4.6546 25.0202 4.66864 25.0196 4.68341V5.83681C25.0196 5.89664 25.0312 5.93653 25.073 5.93653H34.7221C35.5429 5.93653 35.9219 6.7808 35.9219 7.95747C35.9219 9.13413 35.5312 9.98173 34.7221 9.98173H27.0958C25.9101 9.98173 25.0196 11.4243 25.0196 13.3123V16.9553C25.0175 16.9754 25.0204 16.9959 25.0275 17.0134C25.0347 17.0309 25.0458 17.0444 25.0591 17.0517Z" fill="#F4F4F4"/>
        <path d="M52.1486 15.7221H61.8674C61.8792 15.723 61.8906 15.7288 61.9001 15.7389C61.9096 15.7489 61.9168 15.7627 61.9209 15.7786V16.9553C61.9198 16.9684 61.9208 16.9818 61.9238 16.9943C61.9268 17.0069 61.9317 17.0184 61.9381 17.0279C61.9446 17.0374 61.9524 17.0448 61.9611 17.0495C61.9698 17.0542 61.9791 17.0561 61.9883 17.055H63.7414C63.7577 17.0517 63.7724 17.0394 63.7824 17.0207C63.7924 17.0021 63.7969 16.9786 63.7949 16.9553V15.7985C63.796 15.7735 63.8035 15.7499 63.8159 15.7321C63.8283 15.7144 63.8448 15.7037 63.8623 15.7021H65.6015C65.6105 15.7031 65.6196 15.7013 65.6281 15.6968C65.6366 15.6924 65.6443 15.6853 65.6507 15.6761C65.6571 15.667 65.6621 15.6559 65.6652 15.6438C65.6683 15.6316 65.6696 15.6187 65.6689 15.6058V14.449C65.6697 14.4358 65.6684 14.4225 65.6651 14.4101C65.6618 14.3977 65.6566 14.3865 65.65 14.3773C65.6433 14.368 65.6353 14.3611 65.6265 14.3568C65.6177 14.3525 65.6084 14.3511 65.5992 14.3526H63.86C63.8425 14.3511 63.826 14.3404 63.8135 14.3227C63.8011 14.3049 63.7937 14.2813 63.7926 14.2562V5.89659C63.7926 5.2019 63.6182 4.77976 63.3229 4.62354H62.8114C62.6291 4.69132 62.4562 4.80257 62.2999 4.9526L51.8254 14.1798C51.4208 14.5454 51.272 14.9509 51.3813 15.2601C51.4627 15.5293 51.6905 15.7221 52.1486 15.7221ZM53.6599 14.1798L61.7744 7.01343C61.7885 6.99748 61.8055 6.98785 61.8234 6.98574C61.8412 6.98364 61.8592 6.98917 61.8748 7.00162C61.8905 7.01408 61.9033 7.0329 61.9115 7.05571C61.9197 7.07852 61.9229 7.10429 61.9209 7.12977V14.2928C61.9203 14.3184 61.9131 14.3429 61.9007 14.3613C61.8882 14.3798 61.8714 14.3909 61.8535 14.3925H53.7017C53.632 14.3925 53.5924 14.3526 53.5924 14.3327C53.5925 14.2999 53.5991 14.2678 53.6114 14.2401C53.6238 14.2124 53.6414 14.1904 53.6622 14.1765L53.6599 14.1798Z" fill="#F4F4F4"/>
        <path d="M7.44443 0C8.22566 0.212731 9.00689 0.518531 9.77649 0.830979C10.2206 1.02044 10.653 1.19661 11.0971 1.40602C11.7915 1.69624 12.4607 2.09765 13.0921 2.60263C13.3744 2.84124 13.6366 3.12566 13.8733 3.45022C14.1193 3.80534 14.3234 4.21505 14.4778 4.66345C14.7288 5.48371 14.8624 6.36752 14.8707 7.26276C14.895 7.84303 14.8716 8.42537 14.801 8.99784C14.7411 9.50048 14.6182 9.98354 14.4383 10.4238C14.2771 10.8145 14.0439 11.1342 13.764 11.3478C13.4969 11.558 13.1943 11.6581 12.8898 11.637C12.429 11.6216 11.9766 11.4568 11.5668 11.1551C11.5552 9.19063 11.5668 7.24281 11.5668 5.27838C11.5806 4.92393 11.5673 4.5684 11.5273 4.21805C11.4979 3.94194 11.4084 3.68609 11.2715 3.48679C11.1728 3.36401 11.052 3.28338 10.9228 3.25411C10.8575 3.23493 10.7897 3.24289 10.7275 3.27706C10.6653 3.31122 10.6112 3.37016 10.5717 3.4469C10.4468 3.69233 10.3845 3.99142 10.395 4.2945V20C9.41145 19.5546 8.42794 19.1125 7.44443 18.6505V0ZM3.0105 13.2558L6.86549 11.2913V13.7377C5.85408 14.2563 4.82872 14.7781 3.81963 15.3C3.67619 15.3644 3.54333 15.4695 3.42902 15.6091C3.39873 15.6421 3.37595 15.6872 3.36354 15.7386C3.35113 15.7901 3.34964 15.8456 3.35926 15.8983C3.4034 16.0113 3.47691 16.0949 3.56387 16.131C3.78786 16.2472 4.02568 16.2991 4.26372 16.2839C4.53092 16.2822 4.79732 16.2421 5.0589 16.1642C5.23308 16.1042 5.40403 16.0265 5.57042 15.9315C6.00056 15.6989 6.4307 15.4894 6.87711 15.2568V17.4539C6.34357 17.595 5.80345 17.6794 5.26118 17.7065C4.1646 17.761 3.06987 17.5393 2.02699 17.0517C1.68257 16.9282 1.35757 16.7128 1.06906 16.4168C0.905535 16.2546 0.779314 16.0267 0.706345 15.762C0.649924 15.5293 0.654885 15.2752 0.720296 15.0474C0.798411 14.8349 0.91378 14.6551 1.05511 14.5255C1.3794 14.2244 1.72268 13.9674 2.08047 13.7577C2.37575 13.5649 2.70127 13.4087 3.0105 13.2558Z" fill="#F4F4F4"/>
        <path d="M13.3476 12.4282C13.6429 12.3883 13.9289 12.3683 14.2242 12.3517C15.1926 12.3382 16.1566 12.5401 17.0817 12.95C17.2561 13.0265 17.4304 13.1229 17.6211 13.2159C17.9495 13.3668 18.2553 13.6034 18.5232 13.9139C18.6052 14.0112 18.6726 14.1311 18.7213 14.2664C18.7701 14.4018 18.7992 14.5499 18.8069 14.7017C18.8103 14.8271 18.795 14.952 18.7622 15.0683C18.7293 15.1846 18.6796 15.2896 18.6162 15.3765C18.3905 15.7106 18.1212 15.9783 17.8234 16.1642C17.5122 16.373 17.1923 16.554 16.8655 16.706C14.8984 17.7065 12.9291 18.727 10.9621 19.7308V17.3608C10.9621 17.321 10.9481 17.2811 10.99 17.2611C12.485 16.4933 13.9824 15.7421 15.4774 14.9676C15.6864 14.8799 15.8859 14.7513 16.0703 14.5854C16.1094 14.5477 16.1403 14.4949 16.1592 14.4331C16.1781 14.3713 16.1844 14.3031 16.1772 14.2364C16.1336 14.124 16.061 14.0405 15.9749 14.0037C15.751 13.8875 15.5131 13.8355 15.2751 13.8508C14.9002 13.8495 14.5272 13.9279 14.1684 14.0835C13.1064 14.625 12.0422 15.1579 10.976 15.6823V13.1395C11.7487 12.7937 12.5429 12.5555 13.3476 12.4282Z" fill="#F4F4F4"/>
    </g>
    <defs>
        <clipPath id="clip0_1_1307">
            <rect width="65" height="20" fill="white" transform="translate(0.666626)"/>
        </clipPath>
    </defs>
</svg>
