<svg width="65" height="20" viewBox="0 0 65 20" fill="none" xmlns="http://www.w3.org/2000/svg">
    <g clip-path="url(#clip0_1_1304)">
        <path fill-rule="evenodd" clip-rule="evenodd" d="M1.42087 17.0218C-0.0704085 16.4467 -0.322214 15.2468 0.362306 14.5588C0.890592 14.0856 1.46277 13.7101 2.06383 13.4419L6.4912 11.2947V13.7411L3.31063 15.29C2.74834 15.5692 2.66033 15.9581 3.1175 16.1642C3.73037 16.3592 4.37138 16.313 4.9657 16.0312L6.4912 15.28V17.4738C6.39341 17.5004 6.28584 17.5204 6.1905 17.547C4.5933 17.8947 2.95798 17.7134 1.42331 17.0184L1.42087 17.0218ZM10.7548 17.2744L15.72 14.8646C16.2823 14.5853 16.3703 14.2031 15.9131 14.0003C15.3002 13.8054 14.6592 13.8515 14.0649 14.1333L10.7597 15.7188V13.1926L10.9528 13.1062C11.7001 12.7793 12.4702 12.5576 13.2508 12.4447C14.699 12.2395 16.1625 12.4781 17.534 13.1428C18.991 13.7677 19.1548 14.6984 18.7857 15.3299C18.4165 15.9614 17.5046 16.4201 17.5046 16.4201L10.7597 19.7241L10.7548 17.2744ZM11.3342 1.59548C13.95 2.82533 14.8374 4.35101 14.8374 7.79126C14.8374 11.1484 13.3266 12.4148 11.3977 11.1484V4.8928C11.3977 4.15822 11.2999 3.48679 10.7939 3.294C10.4125 3.1278 10.1729 3.61974 10.1729 4.34436V20L7.08771 18.6605V0C8.52616 0.412966 9.94438 0.946927 11.3342 1.5988V1.59548Z" fill="#F4F4F4"/>
        <path d="M64.6505 3.98869H52.0626V8.6322C52.0626 8.6322 52.0211 10.4271 53.6566 10.4271H61.355C61.6557 10.4276 61.9533 10.5101 62.2302 10.6698C62.5048 10.814 62.7397 11.0705 62.9026 11.4039C63.0655 11.7372 63.1483 12.1311 63.1396 12.5312C63.1519 12.8886 63.0951 13.2441 62.9751 13.5625C62.855 13.8809 62.6757 14.151 62.4551 14.346C62.1728 14.589 61.8456 14.7181 61.5115 14.7183H52.0626V16.0179H62.6067C62.6067 16.0179 65.0025 15.8883 65.0025 12.5411C65.0205 11.9139 64.8968 11.2943 64.6481 10.7655C64.3994 10.2366 64.0377 9.82394 63.6115 9.58284C63.1869 9.31698 62.7246 9.18084 62.2571 9.18397H54.6296C54.5032 9.1862 54.3785 9.14383 54.2678 9.06099C54.1579 8.98286 54.0671 8.86307 54.0064 8.71616C53.9456 8.56925 53.9175 8.40153 53.9255 8.23333V5.28502H64.6529L64.6505 3.98869ZM36.2185 14.7083V16.008H41.5602C42.1984 16.0164 42.8178 15.7133 43.3057 15.1537C43.5565 14.8632 43.7567 14.5004 43.8916 14.0916C44.0265 13.6828 44.0927 13.2384 44.0855 12.7904V7.2561C44.0826 6.95318 44.1304 6.65333 44.2253 6.37922C44.3201 6.10511 44.4596 5.86393 44.6332 5.67392C44.8785 5.41345 45.1825 5.27608 45.4937 5.28502H50.1533V3.98869H44.6038C44.6038 3.98869 42.208 4.04852 42.208 7.48878V12.6608C42.2125 13.0819 42.1304 13.4964 41.9709 13.8574C41.8527 14.1243 41.6845 14.3438 41.4835 14.4933C41.2824 14.6428 41.0558 14.717 40.8267 14.7083H36.2185ZM23.8824 3.98869V5.27172H33.407C33.6709 5.27033 33.9319 5.34629 34.1722 5.49443C34.4195 5.63972 34.6283 5.88382 34.7711 6.19432C34.9139 6.50481 34.9838 6.86702 34.9717 7.23284C34.9821 7.59353 34.9111 7.94994 34.7682 8.25416C34.6253 8.55839 34.4173 8.79586 34.1722 8.93468C33.9271 9.08811 33.6598 9.16532 33.3899 9.16071H26.332C25.9144 9.15083 25.5011 9.27736 25.1268 9.52966C24.74 9.80586 24.4186 10.2252 24.1997 10.7393C23.9808 11.2534 23.8734 11.8412 23.8898 12.4348V15.9681H25.7233V12.4547C25.7215 12.2265 25.7514 11.9998 25.8113 11.7866C25.91 11.3791 26.1021 11.0253 26.3595 10.777C26.6169 10.5288 26.926 10.3991 27.2415 10.4072H34.3654C34.605 10.4101 34.8438 10.3665 35.0743 10.2775C35.7344 10.0282 36.8199 9.29366 36.8199 7.22619C36.8199 4.01861 34.4656 3.96875 34.4656 3.96875H23.8849L23.8824 3.98869Z" fill="#F4F4F4"/>
    </g>
    <defs>
        <clipPath id="clip0_1_1304">
            <rect width="65" height="20" fill="white"/>
        </clipPath>
    </defs>
</svg>
