<svg width="41" height="22" viewBox="0 0 41 22" fill="none" xmlns="http://www.w3.org/2000/svg">
    <g clip-path="url(#clip0_1_1313)">
        <path d="M30.7568 17.1835L34.4509 21.868H35.1333V16.0398H34.4509V20.8344L30.6627 16.0398H30.0509V21.868H30.7568V17.1835ZM26.4509 15.9078C24.6862 15.9078 23.4627 17.1615 23.4627 18.9429C23.4627 20.7464 24.6862 22 26.4509 22C28.1921 22 29.4156 20.7464 29.4156 18.9429C29.4156 17.1615 28.1921 15.9078 26.4509 15.9078ZM26.4509 21.3842C25.1097 21.3842 24.1686 20.3945 24.1686 18.9429C24.1686 17.5134 25.1097 16.5237 26.4509 16.5237C27.7921 16.5237 28.7097 17.5134 28.7097 18.9429C28.7097 20.3945 27.7686 21.3842 26.4509 21.3842ZM40.2862 16.6116V16.0398H35.9333V21.868H40.3333V21.2962H36.6156V19.1409H40.0509V18.569H36.6156V16.6116H40.2862ZM17.7215 16.0398L19.5097 18.3051L21.298 16.0398H22.1215L19.9333 18.811L22.3333 21.868H21.5097L19.5097 19.3388L17.5097 21.868H16.7097L19.0862 18.811L16.898 16.0398H17.7215ZM10.5215 19.0309C10.3957 18.9399 10.2619 18.8589 10.1215 18.789C10.3487 18.6772 10.5389 18.5096 10.6716 18.3041C10.8043 18.0987 10.8744 17.8633 10.8744 17.6233C10.8744 17.2494 10.7333 16.0398 8.85092 16.0398H6.30974V18.547H5.46268C5.34504 18.679 5.10974 19.0089 5.01562 19.1409H6.30974V21.868H8.85092C10.2156 21.868 11.0862 21.2082 11.0862 20.1746C11.0822 19.9577 11.0299 19.744 10.9327 19.5471C10.8355 19.3502 10.6954 19.1744 10.5215 19.0309ZM7.01562 16.6556H8.85092C9.34504 16.6556 10.1686 16.7656 10.1686 17.5793C10.1686 18.1952 9.67445 18.547 8.85092 18.547H7.01562V16.6556ZM8.85092 21.2522H7.01562V19.1409H8.85092C9.5568 19.1409 10.3803 19.3168 10.3803 20.1526C10.3568 21.1203 9.41563 21.2522 8.85092 21.2522Z" fill="#F4F4F4"/>
        <path d="M14.3568 15.908C12.6156 15.908 11.3921 17.1616 11.3921 18.943C11.3921 20.7465 12.6156 22.0001 14.3803 22.0001C16.1215 22.0001 17.345 20.7465 17.345 18.943C17.345 17.1616 16.1215 15.908 14.3568 15.908ZM14.3568 21.3843C13.0156 21.3843 12.0744 20.3946 12.0744 18.943C12.0744 17.5135 13.0156 16.5238 14.3568 16.5238C15.698 16.5238 16.6156 17.5135 16.6156 18.943C16.6391 20.3946 15.698 21.3843 14.3568 21.3843ZM0.545017 16.0399L2.73325 18.8111L0.333252 21.8682H1.15678L3.15678 19.3389L5.13325 21.8682H5.95678L3.55678 18.8111L5.74502 16.0399H4.92149L3.15678 18.3052L1.36855 16.0399H0.545017ZM19.5803 14.0583C18.3895 13.9425 17.2448 13.5658 16.2391 12.9586C15.3921 12.4528 15.2038 12.2329 15.2038 11.815C15.2038 10.9572 16.1921 9.48368 17.9097 7.79019C18.8744 6.82248 20.2391 5.70082 20.3803 5.72281C20.6627 5.78879 22.945 7.85617 23.7921 8.82388C25.1332 10.3634 25.745 11.639 25.4391 12.1889C25.2038 12.6067 23.7215 13.4645 22.6391 13.7724C21.6471 14.0433 20.6101 14.1402 19.5803 14.0583ZM14.0509 10.9133C13.345 9.90156 12.9921 8.91186 12.8274 7.48229C12.7803 6.99843 12.7803 6.73451 12.945 5.7668C13.1956 4.47039 13.8316 3.26613 14.7803 2.29184C15.1568 1.91795 15.1803 1.91795 15.6509 2.04991C16.2156 2.22586 16.8038 2.62174 17.745 3.39151L18.2862 3.85337L17.9803 4.20527C16.6156 5.78879 15.1568 8.01013 14.6156 9.39571C14.3097 10.1435 14.1921 10.8913 14.3333 11.2212C14.4274 11.4191 14.3568 11.3311 14.0509 10.9133ZM26.4038 11.0892C26.4744 10.7813 26.3803 10.1875 26.1685 9.59365C25.7215 8.31803 24.2391 5.96474 22.8744 4.35922L22.4509 3.85337L22.9215 3.45749C23.377 3.04766 23.8734 2.67943 24.4038 2.35782C24.7291 2.15306 25.0986 2.01789 25.4862 1.96194C25.6274 1.96194 26.098 2.4238 26.498 2.92965C27.1047 3.75412 27.5361 4.68001 27.7685 5.65683C27.9176 6.53789 27.9255 7.43479 27.7921 8.31803C27.668 8.8924 27.4787 9.45274 27.2274 9.98953C27.0088 10.4211 26.7489 10.8333 26.4509 11.2212C26.3333 11.3311 26.3333 11.3311 26.4038 11.0892ZM19.698 1.72001C19.0188 1.40201 18.2994 1.16554 17.5568 1.01622C17.3685 0.994231 17.0391 0.972238 16.8509 0.972238C16.4038 0.994231 16.4274 0.972238 17.1333 0.66433C17.693 0.409257 18.2864 0.224381 18.898 0.114495C19.8635 -0.0394672 20.85 -0.0394672 21.8156 0.114495C22.6147 0.269451 23.3842 0.536385 24.098 0.906258L24.2627 0.994231L23.9097 0.972238C23.1568 0.950245 22.098 1.21417 20.9685 1.72001C20.6391 1.87397 20.3333 2.00593 20.3333 2.00593C20.3097 2.00593 20.0274 1.87397 19.698 1.72001Z" fill="#F4F4F4"/>
    </g>
    <defs>
        <clipPath id="clip0_1_1313">
            <rect width="40" height="22" fill="white" transform="translate(0.333252)"/>
        </clipPath>
    </defs>
</svg>
