<svg width="24" height="25" viewBox="0 0 24 25" fill="none" xmlns="http://www.w3.org/2000/svg">
<path d="M1.99064 9.97525C1.99064 8.49447 2.43026 7.04694 3.25391 5.81572C4.07756 4.58449 5.24825 3.62487 6.61793 3.0582C7.98761 2.49152 9.49477 2.34326 10.9488 2.63214C12.4029 2.92103 13.7385 3.6341 14.7868 4.68117C15.8351 5.72824 16.549 7.06229 16.8382 8.51462C17.1275 9.96695 16.979 11.4723 16.4117 12.8404C15.8443 14.2085 14.8836 15.3778 13.6509 16.2004C12.4182 17.0231 10.969 17.4622 9.48645 17.4622C7.49844 17.4622 5.59185 16.6734 4.18611 15.2693C2.78037 13.8653 1.99064 11.9609 1.99064 9.97525ZM23.6985 22.8429L16.9823 16.0846C18.5304 14.1851 19.2889 11.7643 19.1013 9.32223C18.9136 6.88013 17.794 4.60331 15.9738 2.96208C14.1536 1.32084 11.7718 0.44058 9.32045 0.503118C6.86908 0.565655 4.53538 1.56622 2.80143 3.29812C1.06748 5.03003 0.0657328 7.36096 0.00312149 9.80945C-0.0594898 12.2579 0.821815 14.6369 2.46499 16.455C4.10816 18.273 6.38768 19.3913 8.83266 19.5787C11.2776 19.7662 13.7013 19.0085 15.603 17.4622L22.3693 24.2205C22.4567 24.3091 22.561 24.3794 22.676 24.4274C22.7909 24.4754 22.9143 24.5001 23.0389 24.5C23.1621 24.501 23.2843 24.4767 23.3978 24.4286C23.5112 24.3806 23.6136 24.3097 23.6985 24.2205C23.7936 24.1326 23.8695 24.0261 23.9213 23.9075C23.9732 23.789 24 23.661 24 23.5317C24 23.4023 23.9732 23.2743 23.9213 23.1558C23.8695 23.0372 23.7936 22.9307 23.6985 22.8429Z" fill="#F4F4F4"/>
</svg>
