<svg width="100" height="26" viewBox="0 0 100 26" fill="none" xmlns="http://www.w3.org/2000/svg">
<path fill-rule="evenodd" clip-rule="evenodd" d="M1.76724 4.26797C1.76603 3.9695 1.8029 3.86083 2.08575 3.86518C3.53568 3.88981 4.98681 3.84127 6.43492 3.89488C8.56599 3.97457 10.503 4.71858 12.0823 6.52318C13.1696 7.76488 13.8532 9.28478 14.1221 11.0488C14.6582 14.5631 13.8314 17.5449 11.5982 19.9284C10.3791 21.2295 8.91774 21.8837 7.30403 22.0401C5.52532 22.2126 3.74177 22.0756 1.96064 22.122C1.7479 22.1278 1.77147 21.9894 1.77147 21.8293C1.77328 20.0312 1.77631 7.17736 1.76724 4.26797ZM4.73236 18.6917C4.73115 18.9388 4.77467 19.0177 4.99225 19.0148C5.58636 19.0054 6.18108 19.0127 6.77156 18.9337C7.84979 18.7888 8.86032 18.4179 9.64965 17.4718C10.9763 15.8809 11.4634 13.9466 11.0953 11.758C10.7243 9.55355 9.66597 8.00033 7.83045 7.31862C6.93656 6.98683 6.00701 7.00711 5.0817 6.99335C4.81818 6.98972 4.72692 7.05203 4.72994 7.39904C4.74566 9.26812 4.74143 16.7973 4.73236 18.6917ZM91.7381 14.4697L96.5085 22.1169H95.8672C94.9709 22.1169 94.074 22.1003 93.1777 22.1271C92.9063 22.135 92.7691 22.0141 92.6289 21.7612C91.3863 19.5285 90.1328 17.3037 88.8823 15.0775C88.8654 15.047 88.8448 15.0188 88.834 14.9862C88.7584 14.7638 88.5958 14.7783 88.452 14.8138C88.2931 14.8529 88.3692 15.0318 88.3686 15.1441C88.3638 17.3298 88.3571 19.5147 88.3728 21.7004C88.3752 22.0641 88.2858 22.1343 88.0035 22.1264C87.2184 22.1024 86.4321 22.1111 85.6464 22.1227C85.4482 22.1256 85.3678 22.0829 85.3684 21.8127C85.3751 15.9323 85.3739 10.0527 85.3708 4.17234C85.3708 3.97312 85.3884 3.86518 85.5945 3.87025C87.2855 3.91227 88.979 3.78911 90.6683 3.94487C91.8414 4.05281 92.9444 4.43314 93.8468 5.39159C94.9286 6.54201 95.2332 8.05032 95.1595 9.7122C95.0513 12.1565 93.9404 13.7706 91.9605 14.3719C91.8934 14.3921 91.8299 14.4291 91.7381 14.4697ZM88.365 9.52602C88.365 10.3331 88.3771 11.1408 88.3583 11.9479C88.3517 12.2311 88.4266 12.2862 88.6436 12.276C89.0848 12.2543 89.5266 12.2659 89.9678 12.2101C91.2606 12.0464 91.9955 11.151 92.091 9.59919C92.1684 8.34951 91.6353 7.40411 90.6435 7.01436C89.9914 6.7579 89.3187 6.78615 88.6466 6.77022C88.4272 6.76515 88.3523 6.82238 88.3583 7.10346C88.3764 7.9105 88.365 8.71826 88.365 9.52602ZM75.0189 4.2303C75.0183 3.95646 75.0648 3.86735 75.3108 3.86808C77.9296 3.88039 80.5478 3.87822 83.1666 3.87025C83.3703 3.86952 83.4441 3.91734 83.4392 4.18176C83.4244 5.02662 83.4244 5.87175 83.4392 6.71661C83.4435 6.97161 83.3649 7.00566 83.1812 7.00421C81.5596 6.99697 79.938 7.00856 78.317 6.99117C78.0415 6.98828 77.9865 7.08463 77.9913 7.39469C78.0076 8.49295 78.0058 9.59194 77.9919 10.6902C77.9883 10.9648 78.0529 11.0314 78.2778 11.0292C79.8389 11.0169 81.4 11.0307 82.9605 11.0148C83.2071 11.0126 83.2543 11.1031 83.2494 11.3748C83.2349 12.1833 83.2349 12.9925 83.2494 13.801C83.2537 14.0567 83.1932 14.1176 82.9835 14.1161C81.4327 14.1053 79.8812 14.1205 78.3309 14.1009C78.0414 14.0973 77.9883 14.2067 77.9913 14.5247C78.0052 15.9004 78.0034 17.2769 77.9919 18.6533C77.9895 18.9272 78.0372 19.017 78.2838 19.0148C79.9054 18.9996 81.5269 19.0141 83.1479 18.9996C83.3897 18.9975 83.4441 19.08 83.4392 19.3568C83.4241 20.1892 83.4289 21.023 83.4374 21.8554C83.4392 22.0546 83.3987 22.1227 83.2222 22.122C80.5635 22.1155 77.9049 22.1133 75.2456 22.1249C75.0032 22.1264 75.0225 21.9844 75.0225 21.7946C75.0243 18.8489 75.0268 7.13896 75.0189 4.2303ZM21.6322 16.8466C22.0329 17.7449 22.5612 18.4759 23.339 18.8859C24.1749 19.3264 25.0361 19.4799 25.904 19.0148C26.6928 18.5925 27.1188 17.8383 27.1527 16.8125C27.1865 15.7954 26.7326 15.1144 25.9977 14.6747C25.1528 14.169 24.2395 13.8691 23.3765 13.4199C22.5328 12.9809 21.7295 12.4724 21.1469 11.5733C20.7909 11.0235 20.5939 10.3954 20.5244 9.72307C20.2167 6.72747 21.5857 4.58455 23.6618 3.88039C25.8303 3.14508 27.7831 3.79128 29.5328 5.4394C29.6621 5.56111 29.7062 5.64732 29.5823 5.83278C29.1369 6.50145 28.7017 7.18025 28.2805 7.87065C28.1523 8.08074 28.0967 8.02134 27.9801 7.8721C27.5044 7.26357 26.9581 6.77022 26.2503 6.64923C25.3571 6.49637 24.5115 6.6333 23.8896 7.52075C23.3336 8.31474 23.4569 9.31376 24.1592 9.91215C24.7877 10.4475 25.5208 10.717 26.2298 11.0452C26.8946 11.3531 27.5437 11.6972 28.165 12.1195C29.433 12.9809 30.1293 14.2451 30.2206 16.0164C30.3735 19.0069 29.0626 21.5316 26.6196 22.2843C24.0135 23.087 21.4666 22.1981 19.7949 19.2394C19.726 19.117 19.7181 19.046 19.8136 18.9381C20.4198 18.2484 21.0194 17.5529 21.6322 16.8466ZM59.0746 3.87532C60.1075 3.87532 61.0944 3.88329 62.0808 3.8688C62.2784 3.8659 62.3552 3.95066 62.4235 4.15785C63.3313 6.91293 65.9477 14.8029 66.3496 16.0207C66.5333 15.778 69.1473 7.83081 70.3796 4.14554C70.4286 3.99848 70.4642 3.8688 70.6431 3.87097C71.6494 3.88184 72.6564 3.87604 73.7056 3.87604C73.4662 4.56499 69.1551 16.8263 67.2362 22.3009C67.1601 22.5176 67.076 22.5886 66.8875 22.5799C66.5055 22.5625 66.1223 22.5639 65.7398 22.5799C65.5693 22.5871 65.4926 22.5125 65.4297 22.3292C64.2475 18.891 60.0984 6.87816 59.2124 4.30637C59.167 4.17452 59.1272 4.04049 59.0746 3.87532ZM42.8867 8.80809C42.3252 8.16478 41.7873 7.62362 41.1448 7.26719C38.6161 5.86538 35.5718 7.37078 34.5975 10.5859C33.8469 13.0621 34.0965 15.4165 35.605 17.4269C36.6138 18.7714 37.9458 19.2619 39.432 19.243C40.6112 19.2286 41.586 18.6533 42.4485 17.7405C42.5754 17.6058 42.6981 17.466 42.8214 17.3298C42.9284 17.4001 42.8843 17.5087 42.8849 17.5935C42.8885 18.7888 42.8855 19.9842 42.8891 21.1795C42.8897 21.3606 42.8673 21.4715 42.7029 21.5664C39.6496 23.3289 35.7864 22.6313 33.3978 19.7002C31.9195 17.8862 31.1912 15.6961 31.1453 13.1613C31.0673 8.87184 33.4516 5.13151 36.7685 3.93038C38.8034 3.19289 40.7907 3.33416 42.7078 4.48748C42.8111 4.54978 42.8909 4.60267 42.8903 4.77364C42.8843 6.08851 42.8867 7.40411 42.8867 8.80809ZM18.6139 21.7192C18.6151 22.0191 18.5777 22.1372 18.2918 22.1271C17.4867 22.0988 16.6805 22.1097 15.8748 22.1227C15.6796 22.1256 15.6192 22.0655 15.6192 21.8235C15.6246 15.9439 15.6252 10.0643 15.6186 4.18393C15.6186 3.91879 15.6911 3.86663 15.8936 3.87025C16.6889 3.88329 17.4855 3.88981 18.2803 3.86735C18.5438 3.86011 18.6163 3.93545 18.6151 4.26145C18.6042 7.18315 18.6055 18.8221 18.6139 21.7192Z" fill="#F4F4F4"/>
<path fill-rule="evenodd" clip-rule="evenodd" d="M97.0687 3.75C96.4256 3.75 95.9047 4.38027 95.9047 5.15833C95.9047 5.93639 96.4256 6.56666 97.0687 6.56666C97.7118 6.56666 98.2328 5.93639 98.2328 5.15833C98.2328 4.38027 97.7118 3.75 97.0687 3.75ZM97.0687 6.30513C96.5622 6.30513 96.1513 5.7915 96.1513 5.15833C96.1513 4.52516 96.5622 4.01153 97.0687 4.01153C97.5758 4.01153 97.9862 4.52516 97.9862 5.15833C97.9862 5.7915 97.5758 6.30513 97.0687 6.30513Z" fill="#252122"/>
<path fill-rule="evenodd" clip-rule="evenodd" d="M97.1702 5.30167C97.3141 5.53204 97.4561 5.75952 97.6005 5.99207H97.5425C97.4615 5.99207 97.3806 5.99062 97.2996 5.99279C97.2754 5.99352 97.2627 5.98265 97.25 5.95947C97.1376 5.75807 97.0246 5.5574 96.9115 5.356C96.9097 5.35311 96.9079 5.35093 96.9073 5.34803C96.9007 5.32775 96.8856 5.3292 96.8729 5.3321C96.8584 5.33572 96.8656 5.35166 96.8656 5.3618C96.865 5.55885 96.8644 5.75662 96.8662 5.95367C96.8662 5.98627 96.8584 5.99279 96.833 5.99207C96.7623 5.9899 96.6909 5.99062 96.6202 5.99207C96.6021 5.99207 96.5948 5.98845 96.5948 5.96382C96.5955 5.43279 96.5955 4.9025 96.5948 4.37148C96.5948 4.35337 96.5967 4.34395 96.6148 4.34395C96.7671 4.34757 96.92 4.3367 97.0729 4.35047C97.1787 4.35989 97.2784 4.39466 97.36 4.48087C97.4579 4.58447 97.4851 4.72066 97.4785 4.87062C97.4688 5.09158 97.3685 5.23719 97.1896 5.29153C97.1841 5.29515 97.1787 5.29805 97.1702 5.30167ZM96.8656 4.85541C96.8656 4.92858 96.8668 5.00102 96.865 5.07419C96.8644 5.09955 96.8711 5.10462 96.891 5.1039C96.9309 5.10172 96.9708 5.10317 97.0107 5.0981C97.1273 5.08361 97.1938 5.00247 97.2023 4.86265C97.2089 4.74964 97.1612 4.66415 97.0717 4.62938C97.0131 4.6062 96.952 4.60837 96.8916 4.60765C96.8717 4.60765 96.865 4.61272 96.8656 4.63807C96.8668 4.70979 96.8656 4.78296 96.8656 4.85541Z" fill="#231F20"/>
<path d="M51.8763 22.6752C56.3184 22.6752 59.9195 18.3432 59.9195 12.9995C59.9195 7.6557 56.3184 3.32373 51.8763 3.32373C47.4342 3.32373 43.8331 7.6557 43.8331 12.9995C43.8331 18.3432 47.4342 22.6752 51.8763 22.6752Z" fill="url(#paint0_linear_1_1052)"/>
<defs>
<linearGradient id="paint0_linear_1_1052" x1="48.4663" y1="4.23422" x2="57.5561" y2="20.4968" gradientUnits="userSpaceOnUse">
<stop offset="0.383" stop-color="#E35E26"/>
<stop offset="1" stop-color="#F9A121"/>
</linearGradient>
</defs>
</svg>
