<svg width="140" height="26" viewBox="0 0 140 26" fill="none" xmlns="http://www.w3.org/2000/svg">
<g clip-path="url(#clip0_1_1082)">
<path d="M25.1972 11.6484C25.1834 11.1397 24.9487 10.878 24.5069 10.8635H22.1322C21.5661 10.8926 21.2761 11.2269 21.2623 11.8373V16.3286C21.2761 16.9536 21.5937 17.2734 22.215 17.3024H24.3826C24.6036 17.3024 24.7968 17.2152 24.9487 17.0408C25.1006 16.91 25.1834 16.7356 25.1834 16.5176V11.6484H25.1972ZM18.2249 11.0234C18.2387 9.90419 18.4734 9.04664 18.9428 8.46524C19.1775 8.21815 19.4813 8.01466 19.854 7.84024C20.2406 7.66582 20.5996 7.57861 20.9586 7.57861H25.3077C27.2268 7.59315 28.2071 8.6978 28.2347 10.8926V17.6513C28.2209 18.4362 27.931 19.1048 27.3649 19.6716C26.8126 20.2676 26.1499 20.5728 25.3767 20.5873H21.2761V25.4565H18.2249V11.0234Z" fill="#F4F4F4"/>
<path d="M33.7436 16.6483C33.7436 16.8372 33.8264 16.9826 33.9921 17.0988C34.1302 17.2297 34.3235 17.3023 34.5444 17.3023H36.8777C37.4024 17.3023 37.6785 17.0843 37.6923 16.6483V15.7326C37.6923 15.2238 37.4162 14.9768 36.8501 14.9768H34.5306C34.2268 14.9768 34.0197 15.0349 33.8955 15.1366C33.785 15.2529 33.7298 15.4855 33.7298 15.8343V16.6483H33.7436ZM37.6923 11.5756C37.7061 11.0814 37.43 10.8488 36.8777 10.8634H30.7475V7.56396H37.6509C39.6667 7.59303 40.6884 8.62501 40.716 10.6454V17.5349C40.7022 18.407 40.4398 19.1192 39.9566 19.7006C39.4458 20.2965 38.783 20.5872 37.9684 20.5872H33.7988C31.7692 20.5727 30.7337 19.5988 30.7061 17.6512V14.9913C30.7199 12.9564 31.7002 11.9244 33.6608 11.8954H37.7061V11.5756" fill="#F4F4F4"/>
<path d="M49.2761 22.1715C49.5108 22.157 49.7317 22.0698 49.8974 21.8954C50.0631 21.7355 50.1459 21.5611 50.1459 21.3721V20.5872H46.2525C45.7416 20.5872 45.3412 20.5145 45.0375 20.3837C44.7199 20.2529 44.4024 20.0349 44.071 19.7006C43.7672 19.3518 43.5463 18.9884 43.4083 18.6105C43.2702 18.2616 43.2012 17.8256 43.2012 17.2878V7.56396H46.2525V16.2558C46.2525 16.9535 46.5286 17.3023 47.067 17.3023H49.2209C49.4832 17.3023 49.7041 17.2151 49.8836 17.0407C50.0631 16.8808 50.1459 16.7064 50.1459 16.4884V7.56396H53.1696V21.9099C53.1558 22.9709 52.8935 23.8285 52.3964 24.468C51.8856 25.1076 51.1953 25.4419 50.3116 25.4564H43.2012V22.157H49.2761" fill="#F4F4F4"/>
<path d="M55.5582 17.2879H60.9842C61.4812 17.2734 61.7436 17.0554 61.7574 16.6629V16.3722C61.7574 16.285 61.7298 16.1978 61.6883 16.0961C61.5641 15.849 61.4122 15.7181 61.2465 15.7181H58.5542C57.7534 15.7036 57.0769 15.4129 56.497 14.8461C55.9171 14.3228 55.6272 13.6978 55.5996 12.942V10.5001C55.6272 8.58152 56.6213 7.60768 58.568 7.57861H64.8639V10.878H59.5207C58.8994 10.878 58.5818 11.0815 58.5818 11.4885V11.8083C58.5818 12.2298 58.8994 12.4333 59.5483 12.4333H62.2268C62.9448 12.4478 63.5522 12.7385 64.0631 13.3054C64.5739 13.8722 64.8363 14.5408 64.8639 15.3257V17.7094C64.8501 18.378 64.5463 19.0612 63.9803 19.7298C63.7041 20.0641 63.4142 20.2821 63.1381 20.4129C62.8481 20.5292 62.4477 20.5873 61.9369 20.5873H55.572V17.2879" fill="#F4F4F4"/>
<path d="M70.069 16.6483C70.069 16.8372 70.1519 16.9826 70.3176 17.0988C70.4556 17.2297 70.6351 17.3023 70.8698 17.3023H73.217C73.7416 17.3023 74.0178 17.0843 74.0316 16.6483V15.7326C74.0316 15.2238 73.7554 14.9768 73.1894 14.9768H70.8698C70.5661 14.9768 70.359 15.0349 70.2347 15.1366C70.1243 15.2529 70.069 15.4855 70.069 15.8343V16.6483ZM74.0316 11.5756C74.0454 11.0814 73.7692 10.8488 73.2032 10.8634H67.073V7.56396H73.9763C75.9921 7.59303 77.0138 8.62501 77.0414 10.6454V17.5349C77.0276 18.407 76.7653 19.1192 76.2821 19.7006C75.7712 20.2965 75.1085 20.5872 74.2939 20.5872H70.1105C68.0809 20.5727 67.0454 19.5988 67.0178 17.6512V14.9913C67.0316 12.9564 68.0118 11.9244 69.9724 11.8954H74.0316V11.5756Z" fill="#F4F4F4"/>
<path d="M79.5266 5.70328C79.5404 4.81666 79.858 4.10445 80.4655 3.56666C81.0592 3.02887 81.8323 2.73817 82.7988 2.72363H84.7317V5.90677H83.5582C82.9092 5.92131 82.5917 6.24108 82.5779 6.88061V7.57828H84.7317V10.8777H82.5779V20.6015H79.5266V5.70328Z" fill="#F4F4F4"/>
<path d="M93.3885 11.5175V11.4448C93.3885 11.2704 93.3195 11.125 93.1953 11.0233C93.0572 10.9215 92.8777 10.8634 92.6706 10.8634H90.5444C90.2682 10.8634 90.0473 10.9506 89.8816 11.1105C89.6745 11.2558 89.5641 11.4593 89.5641 11.7064V13.0291L93.3885 11.5175ZM89.6193 16.1686V16.3721C89.6193 16.6337 89.6884 16.8518 89.8126 16.9971C89.9093 17.1861 90.0335 17.2878 90.213 17.2878H96.4674V20.5872H89.8126C89.2051 20.5872 88.7357 20.5291 88.4043 20.4128C88.0454 20.282 87.714 20.0785 87.424 19.7878C87.0927 19.439 86.858 19.0901 86.7475 18.7122C86.6233 18.3343 86.5542 17.8256 86.5542 17.2006L86.5266 10.6018C86.5542 8.61048 87.5483 7.59303 89.4951 7.56396H93.5956C95.4872 7.59303 96.4536 8.65408 96.4813 10.718V13.3198L89.6193 16.1686Z" fill="#F4F4F4"/>
<path d="M102.943 20.587C102.487 20.587 102.059 20.5434 101.673 20.4562C101.272 20.3835 100.872 20.1946 100.471 19.8603C100.057 19.4824 99.7672 19.0463 99.6015 18.5667C99.4359 18.1016 99.353 17.5638 99.353 16.9824V10.8487C99.3392 10.3545 99.3806 9.90389 99.4911 9.52598C99.5877 9.14807 99.8086 8.77017 100.14 8.4068C100.513 8.02889 100.886 7.76726 101.286 7.63645C101.673 7.5347 102.101 7.47656 102.584 7.47656H107.25V8.24691H102.694C101.893 8.24691 101.258 8.42133 100.789 8.77017C100.319 9.14807 100.071 9.80214 100.071 10.7324V16.8806C100.071 17.3167 100.14 17.7382 100.264 18.1452C100.389 18.5376 100.609 18.901 100.913 19.2062C101.245 19.4678 101.576 19.6423 101.893 19.7004C102.225 19.7731 102.584 19.8167 102.97 19.8167H107.319V20.587H102.943Z" fill="#F4F4F4"/>
<path d="M119.262 12.6074H113.146C112.414 12.6219 111.834 12.869 111.42 13.3196C110.992 13.7847 110.785 14.4242 110.785 15.2382V17.2004C110.785 17.5783 110.826 17.9271 110.895 18.2469C110.978 18.5812 111.158 18.8719 111.462 19.119C111.986 19.5841 112.58 19.8021 113.215 19.8021H116.929C118.475 19.7876 119.262 18.9301 119.262 17.2149V12.6074ZM119.994 17.0405C119.994 17.5347 119.953 17.9707 119.897 18.3487C119.801 18.7702 119.594 19.1626 119.29 19.5405C118.655 20.2527 117.854 20.6016 116.915 20.5725H113.27C112.318 20.5725 111.558 20.2818 110.964 19.6859C110.357 19.1045 110.053 18.2905 110.053 17.244V15.2673C110.081 13.0289 111.144 11.8806 113.229 11.837H119.29V10.9649C119.29 10.2527 119.097 9.62773 118.696 9.08993C118.448 8.7411 118.158 8.50854 117.826 8.39226C117.495 8.30505 117.108 8.24691 116.694 8.24691H110.081V7.47656H116.349C116.929 7.47656 117.44 7.52017 117.909 7.60738C118.144 7.65098 118.365 7.75273 118.572 7.89807C118.793 8.02889 118.986 8.23238 119.166 8.494C119.732 9.26435 120.008 10.1364 119.994 11.1248V17.0405Z" fill="#F4F4F4"/>
<path d="M126.842 8.24691C125.144 8.27598 124.302 9.24982 124.343 11.1684V20.5725H123.611V11.183C123.584 8.71203 124.688 7.47656 126.966 7.47656H127.781V8.24691H126.842Z" fill="#F4F4F4"/>
<path d="M139.185 8.26149H133.4C132.986 8.26149 132.613 8.3051 132.282 8.40684C131.937 8.49405 131.592 8.71207 131.274 9.07544C130.97 9.40975 130.777 9.74405 130.694 10.0638C130.584 10.3981 130.542 10.7906 130.556 11.2557V17.2586C130.556 18.2615 130.832 18.9301 131.385 19.2935C131.661 19.4679 131.964 19.5842 132.296 19.6714C132.627 19.7586 133.014 19.8167 133.428 19.8167H135.955C136.893 19.8167 137.667 19.5842 138.26 19.1336C138.854 18.6975 139.158 17.9563 139.185 16.8952V8.26149ZM139.89 16.9388C139.82 19.4243 138.578 20.6452 136.148 20.5871H133.442C132.876 20.5871 132.365 20.5289 131.909 20.4272C131.44 20.2964 130.998 20.0057 130.57 19.5406C130.252 19.1191 130.045 18.6975 129.962 18.2615C129.852 17.8254 129.797 17.3458 129.824 16.8225V11.2411C129.852 8.72661 131.067 7.46207 133.442 7.49114H139.172V3.23242H139.903V16.9388" fill="#F4F4F4"/>
<path d="M1.29782 7.06977C1.53254 6.95349 1.78106 6.86628 2.01577 6.82267C2.45759 4.61337 4.32149 2.9564 6.54437 2.9564C8.78106 2.9564 10.6312 4.61337 11.073 6.82267C11.7633 6.95349 12.3294 7.24419 12.7574 7.68023C12.7712 7.25872 12.7574 6.85174 12.716 6.4593C12.4398 3.11628 9.77514 0.5 6.53056 0.5C3.18934 0.5 0.469421 3.2907 0.331354 6.76453C0.317547 7.06977 0.303741 7.375 0.317548 7.7093C0.607488 7.46221 0.925042 7.24419 1.29782 7.06977Z" fill="#E3001B"/>
<path d="M10.1755 7.56396H2.73373C2.37475 7.56396 2.00197 7.65117 1.62919 7.82559C1.25641 8.00001 0.952663 8.2035 0.717949 8.45059C0.262328 9.03199 0.0138067 9.88955 0 11.0087V17.1279C0.0138067 18.2471 0.248521 19.1047 0.717949 19.6861C0.966469 19.9332 1.25641 20.1366 1.62919 20.3111C2.01578 20.4855 2.38856 20.5727 2.73373 20.5727H10.1755C12.0947 20.5582 13.075 19.439 13.1026 17.2442V10.8925C13.075 8.69769 12.0947 7.5785 10.1755 7.56396Z" fill="#E3001B"/>
</g>
<defs>
<clipPath id="clip0_1_1082">
<rect width="140" height="25" fill="white" transform="translate(0 0.5)"/>
</clipPath>
</defs>
</svg>
