<svg width="110" height="26" viewBox="0 0 110 26" fill="none" xmlns="http://www.w3.org/2000/svg">
<g clip-path="url(#clip0_1_1066)">
<path d="M20.1226 2.39453C18.8349 1.07617 16.4996 0.509766 13.5095 0.509766H4.84485C4.23374 0.509766 3.70993 0.910155 3.62263 1.44726L0.0105241 21.9355C-0.0658648 22.3359 0.283342 22.707 0.741675 22.707H6.09981L7.44207 15.0801L7.39842 15.3145C7.49664 14.7773 8.00953 14.377 8.62064 14.377H11.1633C16.1613 14.377 20.0681 12.5605 21.2139 7.30664C21.2466 7.15039 21.2794 7.00391 21.3012 6.84766C21.1593 6.7793 21.1593 6.7793 21.3012 6.84766C21.6395 4.91406 21.3012 3.58594 20.1226 2.39453Z" fill="#003087"/>
<path d="M75.4282 12.082H72.5472C72.2744 12.082 72.0125 12.209 71.8597 12.4043L67.8875 17.6387L66.2069 12.6094C66.0978 12.2969 65.7813 12.082 65.4103 12.082H62.5839C62.2456 12.082 62.0056 12.3848 62.1147 12.668L65.2903 20.998L62.3111 24.7676C62.0819 25.0605 62.3111 25.4707 62.7149 25.4707H65.5958C65.8686 25.4707 66.1196 25.3535 66.2833 25.1484L75.8429 12.7852C76.072 12.4824 75.8319 12.082 75.4282 12.082ZM56.1673 17.0723C55.8944 18.5371 54.5958 19.5234 52.9371 19.5234C52.1077 19.5234 51.4421 19.2793 51.0165 18.8301C50.5909 18.3809 50.4381 17.7363 50.5691 17.0332C50.831 15.5781 52.1514 14.5625 53.7774 14.5625C54.5958 14.5625 55.2506 14.8066 55.6871 15.2656C56.1236 15.7246 56.2982 16.3691 56.1673 17.0723ZM60.1613 12.082H57.2913C57.0512 12.082 56.8329 12.2383 56.8002 12.4629L56.6692 13.1758L56.4728 12.9121C55.8508 12.1016 54.4649 11.8379 53.0899 11.8379C49.9252 11.8379 47.2189 13.9863 46.695 16.9941C46.4222 18.498 46.8151 19.9336 47.7645 20.9395C48.6375 21.8574 49.8816 22.248 51.3766 22.248C53.9302 22.248 55.3488 20.7832 55.3488 20.7832L55.2179 21.4961C55.1742 21.7695 55.4034 22.0137 55.7089 22.0137H58.2843C58.699 22.0137 59.0373 21.75 59.1028 21.3887L60.6524 12.6094C60.7069 12.3262 60.4669 12.082 60.1613 12.082ZM42.9629 12.1406C42.6355 14.0645 40.9986 14.0645 39.4054 14.0645H38.4996L39.1325 10.4707C39.1653 10.2559 39.3835 10.0898 39.6236 10.0898H40.0383C41.1187 10.0898 42.1335 10.0898 42.6683 10.6367C42.9847 10.9785 43.0829 11.4668 42.9629 12.1406ZM42.2754 7.13086H36.2952C35.8806 7.13086 35.5423 7.39453 35.4768 7.75586L33.0542 21.4863C33.0105 21.7598 33.2397 22.0039 33.5452 22.0039H36.4044C36.8081 22.0039 37.1573 21.7402 37.2228 21.3789L37.8776 17.6777C37.9431 17.3164 38.2923 17.0527 38.696 17.0527H40.5948C44.5343 17.0527 46.8151 15.3437 47.4044 11.9648C47.6772 10.4902 47.4153 9.31836 46.6405 8.50781C45.7893 7.59961 44.2724 7.13086 42.2754 7.13086Z" fill="#F4F4F4"/>
<path d="M106.235 7.50195L103.779 21.4863C103.736 21.7598 103.965 22.0039 104.27 22.0039H106.737C107.14 22.0039 107.49 21.7402 107.555 21.3789L109.978 7.64844C110.021 7.375 109.792 7.13086 109.487 7.13086H106.726C106.486 7.13086 106.267 7.28711 106.235 7.50195ZM98.8578 17.0723C98.5849 18.5371 97.2863 19.5234 95.6276 19.5234C94.7982 19.5234 94.1326 19.2793 93.707 18.8301C93.2814 18.3809 93.1286 17.7363 93.2595 17.0332C93.5214 15.5781 94.8419 14.5625 96.4679 14.5625C97.2863 14.5625 97.9411 14.8066 98.3776 15.2656C98.8141 15.7246 98.9887 16.3691 98.8578 17.0723ZM102.852 12.082H99.9927C99.7526 12.082 99.5343 12.2383 99.5016 12.4629L99.3707 13.1758L99.1742 12.9121C98.5522 12.1016 97.1663 11.8379 95.7913 11.8379C92.6266 11.8379 89.9203 13.9863 89.3965 16.9941C89.1236 18.498 89.5165 19.9336 90.4659 20.9395C91.3389 21.8574 92.583 22.248 94.078 22.248C96.6316 22.248 98.0502 20.7832 98.0502 20.7832L97.9193 21.4961C97.8756 21.7695 98.1048 22.0137 98.4103 22.0137H100.975C101.39 22.0137 101.728 21.75 101.793 21.3887L103.343 12.6094C103.397 12.3262 103.157 12.082 102.852 12.082ZM85.6534 12.1406C85.326 14.0645 83.6891 14.0645 82.0959 14.0645H81.1901L81.823 10.4707C81.8558 10.2559 82.074 10.0898 82.3141 10.0898H82.7288C83.8091 10.0898 84.824 10.0898 85.3588 10.6367C85.6752 10.9785 85.7734 11.4668 85.6534 12.1406ZM84.9659 7.13086H78.9857C78.5711 7.13086 78.2328 7.39453 78.1673 7.75586L75.7447 21.4863C75.701 21.7598 75.9302 22.0039 76.2357 22.0039H79.3022C79.5859 22.0039 79.8369 21.8184 79.8806 21.5645L80.5681 17.668C80.6336 17.3066 80.9828 17.043 81.3865 17.043H83.2853C87.2248 17.043 89.5056 15.334 90.0949 11.9551C90.3677 10.4805 90.1058 9.30859 89.331 8.49805C88.4798 7.59961 86.9629 7.13086 84.9659 7.13086Z" fill="#F4F4F4"/>
<path d="M20.1226 2.39453C18.8349 1.07617 16.4996 0.509766 13.5095 0.509766H4.84485C4.23374 0.509766 3.70993 0.910155 3.62263 1.44726L0.0105241 21.9355C-0.0658648 22.3359 0.283342 22.707 0.741675 22.707H6.09981L7.44207 15.0801L7.39842 15.3145C7.49664 14.7773 8.00953 14.377 8.62064 14.377H11.1633C16.1613 14.377 20.0681 12.5605 21.2139 7.30664C21.2466 7.15039 21.2794 7.00391 21.3012 6.84766C21.1593 6.7793 21.1593 6.7793 21.3012 6.84766C21.6395 4.91406 21.3012 3.58594 20.1226 2.39453Z" fill="#003087"/>
<path d="M8.88255 6.87695C8.93711 6.55469 9.17719 6.29102 9.48275 6.1543C9.62461 6.0957 9.7883 6.05664 9.95199 6.05664H16.7506C17.5581 6.05664 18.3111 6.10547 18.9877 6.20313C19.1841 6.23242 19.3806 6.26172 19.5552 6.30078C19.7407 6.33984 19.9153 6.37891 20.0899 6.42773C20.1772 6.44726 20.2645 6.47656 20.3518 6.49609C20.6901 6.59375 21.0066 6.71094 21.2903 6.84766C21.6286 4.9043 21.2903 3.58594 20.1117 2.38477C18.824 1.06641 16.4887 0.5 13.4986 0.5H4.84485C4.23374 0.5 3.70993 0.900391 3.62263 1.4375L0.0105241 21.9355C-0.0658648 22.3359 0.283342 22.707 0.741675 22.707H6.09981L7.44207 15.0801L8.88255 6.87695Z" fill="#002F86"/>
<path d="M21.3012 6.85742C21.2794 7.00391 21.2466 7.16016 21.2139 7.31641C20.0681 12.5703 16.1613 14.3867 11.1633 14.3867H8.62064C8.00953 14.3867 7.49663 14.7871 7.39842 15.3242L6.0998 22.7168L5.72877 24.8164C5.6633 25.168 5.96885 25.4902 6.37262 25.4902H10.8796C11.4143 25.4902 11.8726 25.1387 11.949 24.6699L11.9927 24.4648L12.8439 19.6406L12.8984 19.377C12.9857 18.9082 13.4331 18.5566 13.9679 18.5566H14.6444C19.0204 18.5566 22.4361 16.9648 23.4401 12.375C23.8548 10.4512 23.6365 8.84961 22.5343 7.72656C22.2069 7.36523 21.7923 7.08203 21.3012 6.85742Z" fill="#009CDE"/>
<path d="M20.1117 6.42773C19.9371 6.37891 19.7625 6.33984 19.577 6.30078C19.3915 6.26172 19.1951 6.23242 19.0096 6.20312C18.3221 6.10547 17.5691 6.05664 16.7615 6.05664H9.96293C9.79924 6.05664 9.63555 6.08594 9.49369 6.1543C9.17722 6.29102 8.94805 6.55469 8.89349 6.87695L7.45301 15.0703L7.40936 15.3047C7.50758 14.7676 8.02047 14.3672 8.63159 14.3672H11.1633C16.1613 14.3672 20.0681 12.5508 21.2139 7.29687C21.2467 7.14062 21.2794 6.99414 21.3012 6.83789C21.0066 6.70117 20.701 6.58398 20.3627 6.48633C20.2754 6.47656 20.199 6.44726 20.1117 6.42773Z" fill="#012069"/>
</g>
<defs>
<clipPath id="clip0_1_1066">
<rect width="110" height="25" fill="white" transform="translate(0 0.5)"/>
</clipPath>
</defs>
</svg>
