<svg width="70" height="26" viewBox="0 0 70 26" fill="none" xmlns="http://www.w3.org/2000/svg">
<g clip-path="url(#clip0_1_1098)">
<path d="M26.578 0.941878L17.4135 25.1218H11.4344L6.92449 5.82512C6.65069 4.63656 6.41262 4.20114 5.57992 3.70039C4.22039 2.88477 1.9753 2.11955 0 1.64461L0.134166 0.941878H9.75875C10.9856 0.941878 12.0884 1.84499 12.367 3.40729L14.7488 17.399L20.6353 0.941475H26.578V0.941878ZM50.0053 17.2273C50.0293 10.8454 42.0253 10.4939 42.0803 7.64303C42.0975 6.7754 42.8445 5.85294 44.4797 5.61749C45.2901 5.50016 47.5232 5.41066 50.0559 6.6996L51.0494 1.57204C49.6884 1.02574 47.9374 0.5 45.7586 0.5C40.1678 0.5 36.2332 3.78667 36.2 8.49292C36.1639 11.9739 39.0084 13.9164 41.1514 15.0731C43.356 16.2576 44.0958 17.0188 44.0874 18.0784C44.0717 19.7003 42.329 20.4164 40.7004 20.4446C37.8574 20.493 36.2077 19.5939 34.8926 18.9178L33.8674 24.2151C35.189 24.8856 37.6284 25.4706 40.1575 25.5C46.0999 25.5 49.987 22.254 50.0053 17.2273ZM64.7686 25.1218H70L65.4336 0.941878H60.6051C59.5194 0.941878 58.6035 1.64098 58.1981 2.71584L49.7103 25.1218H55.6497L56.8288 21.5102H64.0858L64.7686 25.1218ZM58.4574 16.5544L61.4345 7.47571L63.1481 16.5544H58.4574ZM34.6597 0.941878L29.9824 25.1218H24.3263L29.0054 0.941878H34.6597Z" fill="#F4F4F4"/>
</g>
<defs>
<clipPath id="clip0_1_1098">
<rect width="70" height="25" fill="white" transform="translate(0 0.5)"/>
</clipPath>
</defs>
</svg>
