<svg width="130" height="30" viewBox="0 0 130 30" fill="none" xmlns="http://www.w3.org/2000/svg">
<g clip-path="url(#clip0_1_1058)">
<path d="M58.6543 19.7752V13.6108C58.6543 11.2848 57.4676 9.71902 55.5577 9.69847C54.4512 9.60888 53.39 10.2812 52.793 11.4492C52.249 10.3157 51.2493 9.64258 50.1927 9.69847C49.2739 9.64299 48.3969 10.2002 47.8916 11.1615V9.9286H46.1789V19.7752H47.908V14.3218C47.908 12.6122 48.6641 11.7081 49.8344 11.7081C51.0047 11.7081 51.5471 12.6327 51.5471 14.3012V19.7752H53.2664V14.3218C53.2664 12.6122 54.0554 11.7081 55.1928 11.7081C56.3302 11.7081 56.9219 12.6327 56.9219 14.3012V19.7752H58.6543ZM84.2397 9.93682H81.4422V6.95326H79.713V9.93682H78.1154V11.893H79.713V16.3765C79.713 18.6615 80.4198 20.0218 82.4448 20.0218C83.2012 20.0246 83.9428 19.7612 84.5849 19.2615L84.0918 17.4286C83.6322 17.7709 83.1108 17.9616 82.5763 17.9834C81.7216 17.9834 81.4389 17.3259 81.4389 16.3396V11.893H84.2364L84.2397 9.93682ZM98.8453 9.69025C97.9959 9.65943 97.1981 10.2142 96.771 11.1327V9.93682H95.0748V19.7752H96.7875V14.2601C96.7875 12.6163 97.3463 11.7286 98.4673 11.7286C98.8342 11.722 99.1981 11.8059 99.539 11.9752L100.065 9.95737C99.6734 9.7823 99.2612 9.69189 98.8453 9.69025ZM76.7643 10.7176C75.7949 9.99764 74.6798 9.64093 73.5526 9.69025C71.5604 9.69025 70.2652 10.8861 70.2652 12.8382C70.2652 14.445 71.2186 15.4313 72.9806 15.7396L73.786 15.8834C74.7229 16.0478 75.1699 16.356 75.1699 16.9108C75.1699 17.6711 74.5453 18.1067 73.375 18.1067C72.4309 18.1441 71.5042 17.782 70.7452 17.0793L69.9661 18.7437C70.9631 19.6153 72.1587 20.0637 73.375 20.0218C75.6466 20.0218 76.9648 18.682 76.9648 16.8122C76.9648 15.082 75.926 14.1779 74.2166 13.8697L73.4112 13.7259C72.6716 13.6026 72.0765 13.4176 72.0765 12.7601C72.0765 12.0409 72.6354 11.6094 73.5756 11.6094C74.4369 11.6255 75.281 11.9152 76.0279 12.4519L76.7643 10.7176ZM122.629 9.69025C121.78 9.65943 120.982 10.2142 120.555 11.1327V9.93682H118.859V19.7752H120.571V14.2601C120.571 12.6163 121.13 11.7286 122.251 11.7286C122.618 11.722 122.982 11.8059 123.323 11.9752L123.849 9.95737C123.457 9.7823 123.045 9.69189 122.629 9.69025ZM100.574 14.856C100.574 17.8396 102.238 20.0218 104.772 20.0218C105.8 20.0855 106.81 19.6659 107.603 18.8464L106.781 17.1163C106.189 17.6797 105.467 17.99 104.723 17.9998C103.356 17.9998 102.353 16.7423 102.353 14.8519C102.353 12.9615 103.359 11.7245 104.723 11.7039C105.467 11.7138 106.189 12.0241 106.781 12.5875L107.603 10.8574C106.81 10.0379 105.8 9.61833 104.772 9.68203C102.238 9.68203 100.574 11.8642 100.574 14.8478V14.856ZM116.61 19.7587V9.92449H114.897V11.1204C114.305 10.1653 113.378 9.62696 112.412 9.67792C110.206 9.67792 108.467 11.8396 108.467 14.8437C108.467 17.8478 110.197 20.0094 112.412 20.0094C113.378 20.0604 114.305 19.522 114.897 18.567V19.7587H116.61ZM110.239 14.856C110.239 13.1259 111.143 11.7081 112.626 11.7081C114.043 11.7081 114.996 13.0683 114.996 14.856C114.996 16.6437 114.043 18.0039 112.626 18.0039C111.143 18.0039 110.239 16.582 110.239 14.856ZM89.5751 9.69025C87.2739 9.69025 85.6565 11.7902 85.6565 14.856C85.6565 17.9834 87.3364 20.0218 89.6901 20.0218C90.865 20.0731 92.0149 19.5812 92.9183 18.6409L92.08 17.0546C91.4265 17.7085 90.6158 18.0701 89.7789 18.082C88.6743 18.082 87.6717 17.445 87.4251 15.6738H93.27C93.2865 15.4067 93.3029 15.1396 93.3029 14.8519C93.3029 11.7861 91.771 9.68614 89.5652 9.68614L89.5751 9.69025ZM89.5422 11.6053C90.6467 11.6053 91.3535 12.4683 91.5343 13.993H87.4547C87.6355 12.5711 88.3259 11.6053 89.5455 11.6053H89.5422ZM132.491 19.767V5.9834H130.779V11.1286C130.187 10.1735 129.259 9.63518 128.293 9.68614C126.088 9.68614 124.349 11.8478 124.349 14.8519C124.349 17.856 126.078 20.0176 128.293 20.0176C129.259 20.0686 130.187 19.5302 130.779 18.5752V19.767H132.491ZM134.493 18.867C134.561 18.8665 134.628 18.8834 134.69 18.9163C134.751 18.9483 134.805 18.9944 134.852 19.0519C134.898 19.1082 134.934 19.1752 134.96 19.2492C135.013 19.4037 135.013 19.5796 134.96 19.7341C134.934 19.8081 134.898 19.8746 134.852 19.9313C134.805 19.9885 134.75 20.0345 134.69 20.067C134.628 20.1002 134.561 20.1171 134.493 20.1163C134.289 20.1196 134.102 19.9683 134.02 19.7341C133.967 19.5792 133.967 19.4041 134.02 19.2492C134.071 19.0983 134.168 18.9787 134.289 18.9163C134.356 18.8818 134.428 18.8649 134.5 18.867H134.493ZM134.493 19.9765C134.545 19.9774 134.597 19.965 134.644 19.9396C134.69 19.9149 134.731 19.8804 134.766 19.8368C134.917 19.6474 134.917 19.3359 134.766 19.1464C134.731 19.1029 134.69 19.0679 134.644 19.0437C134.596 19.0186 134.545 19.0059 134.493 19.0067C134.44 19.0059 134.388 19.0182 134.339 19.0437C134.195 19.1205 134.101 19.2981 134.101 19.4933C134.101 19.6219 134.141 19.7452 134.214 19.8368C134.25 19.8808 134.292 19.9157 134.339 19.9396C134.39 19.9663 134.445 19.9786 134.5 19.9765H134.493ZM134.523 19.1957C134.572 19.1916 134.621 19.2089 134.661 19.245C134.694 19.2779 134.712 19.3281 134.71 19.3807C134.712 19.4255 134.697 19.469 134.671 19.4998C134.641 19.5335 134.602 19.5537 134.562 19.5574L134.714 19.7752H134.595L134.454 19.5574H134.408V19.7752H134.309V19.1998L134.523 19.1957ZM134.408 19.3026V19.4587H134.523C134.543 19.4661 134.565 19.4661 134.585 19.4587C134.6 19.446 134.609 19.4242 134.608 19.4012C134.609 19.3782 134.6 19.3564 134.585 19.3437C134.565 19.3363 134.543 19.3363 134.523 19.3437L134.408 19.3026ZM126.127 14.856C126.127 13.1259 127.031 11.7081 128.514 11.7081C129.93 11.7081 130.884 13.0683 130.884 14.856C130.884 16.6437 129.93 18.0039 128.514 18.0039C127.031 18.0039 126.127 16.582 126.127 14.856ZM68.3027 14.856V9.92449H66.59V11.1204C65.9979 10.1735 65.0752 9.64052 64.1146 9.69025C61.9088 9.69025 60.1698 11.8519 60.1698 14.856C60.1698 17.8601 61.8989 20.0218 64.1146 20.0218C65.0801 20.0727 66.0078 19.5344 66.5998 18.5793V19.7711H68.3125L68.3027 14.856ZM61.9318 14.856C61.9318 13.1259 62.8358 11.7081 64.3184 11.7081C65.7353 11.7081 66.6886 13.0683 66.6886 14.856C66.6886 16.6437 65.7353 18.0039 64.3184 18.0039C62.8358 18.0039 61.9318 16.5861 61.9318 14.856Z" fill="#F4F4F4"/>
<path d="M24.3258 3.15967H13.9706V26.4241H24.3258V3.15967Z" fill="#FF5F00"/>
<path d="M14.6267 14.7983C14.6237 10.2626 16.2927 5.96887 19.1468 3.16819C17.062 1.11997 14.4857 0.00585938 11.8341 0.00585938C5.34195 0.00585938 -0.000305176 6.68435 -0.000305176 14.8004C-0.000305176 22.9164 5.34195 29.5949 11.8341 29.5949C14.4857 29.5949 17.062 28.4808 19.1468 26.4326C16.2917 23.6311 14.6228 19.3357 14.6267 14.7983Z" fill="#EB001B"/>
<path d="M38.2952 14.7982C38.2952 22.9142 32.9529 29.5923 26.4608 29.5923C23.8085 29.5923 21.2316 28.4778 19.1464 26.4284C21.9995 23.6252 23.6682 19.3323 23.6682 14.7962C23.6682 10.26 21.9995 5.96712 19.1464 3.16397C21.2316 1.11452 23.8085 0 26.4608 0C32.9529 0 38.2952 6.67849 38.2952 14.7945C38.2952 14.7958 38.2952 14.797 38.2952 14.7982Z" fill="#F79E1B"/>
<path d="M37.1561 23.9582V23.4814H37.3106V23.3869H36.926V23.4856H37.0805V23.9623L37.1561 23.9582ZM37.9155 23.9582V23.3828H37.8135L37.6755 23.7938L37.5374 23.3828H37.4158V23.9582H37.4848V23.5266L37.613 23.9006H37.7018L37.83 23.5266V23.9623L37.9155 23.9582Z" fill="#F79E1B"/>
</g>
<defs>
<clipPath id="clip0_1_1058">
<rect width="130" height="30" fill="white"/>
</clipPath>
</defs>
</svg>
