<svg width="23" height="21" viewBox="0 0 23 21" fill="none" xmlns="http://www.w3.org/2000/svg">
<path d="M11.5004 19.5L2.55196 10.3566C1.7655 9.58675 1.24642 8.59383 1.06835 7.5187C0.890276 6.44356 1.06224 5.34079 1.55986 4.36679C1.9351 3.63177 2.48324 2.99462 3.15911 2.50784C3.83498 2.02105 4.61925 1.69857 5.44728 1.56695C6.27532 1.43534 7.12343 1.49836 7.92173 1.75082C8.72003 2.00329 9.44567 2.43797 10.0389 3.01906L11.5004 4.45L12.962 3.01906C13.5552 2.43797 14.2808 2.00329 15.0791 1.75082C15.8774 1.49836 16.7255 1.43534 17.5535 1.56695C18.3816 1.69857 19.1658 2.02105 19.8417 2.50784C20.5176 2.99462 21.0657 3.63177 21.441 4.36679C21.9379 5.34042 22.1096 6.44253 21.9317 7.51705C21.7538 8.59157 21.2354 9.58403 20.4498 10.3539L11.5004 19.5Z" stroke="#F4F4F4" stroke-width="1.5" stroke-linecap="round" stroke-linejoin="round"/>
</svg>
